<svg width="20" height="19" viewBox="0 0 20 19" fill="none" xmlns="http://www.w3.org/2000/svg">
<path fill-rule="evenodd" clip-rule="evenodd" d="M14.0979 2.68894e-05C12.795 1.23978e-05 11.9551 0.15523 10.9924 0.626478C10.6359 0.800949 10.3015 1.01107 9.99097 1.2562C9.69237 1.02481 9.37133 0.824339 9.02963 0.655333C8.04819 0.16991 7.16525 1.23978e-05 5.90909 1.23978e-05C2.54479 1.23978e-05 0.0999985 2.78755 0.0999985 6.4079C0.0999985 9.14199 1.62445 11.7831 4.46395 14.3369C5.9544 15.6774 7.85739 17.004 9.22024 17.7097L10 18.1135L10.7798 17.7097C12.1426 17.004 14.0456 15.6774 15.536 14.3369C18.3755 11.7831 19.9 9.14199 19.9 6.4079C19.9 2.82587 17.4322 0.0138349 14.0979 2.68894e-05ZM18.1 6.40794C18.1 8.54996 16.8276 10.7544 14.3324 12.9986C12.972 14.2222 11.2231 15.4449 10 16.0864C8.77698 15.4449 7.02808 14.2222 5.66769 12.9986C3.17248 10.7544 1.90004 8.54996 1.90004 6.40794C1.90004 3.733 3.59532 1.80005 5.90913 1.80005C6.9079 1.80005 7.52336 1.91848 8.23166 2.26881C8.65005 2.47574 9.01983 2.74898 9.33992 3.09044L10.0021 3.79688L10.6583 3.08484C10.9856 2.72971 11.3609 2.45024 11.7838 2.24323C12.4713 1.90669 13.0483 1.80005 14.0942 1.80006C16.3794 1.80953 18.1 3.77012 18.1 6.40794Z" fill="black"/>
</svg>
